<?xml version="1.0" standalone="no"?>
<!DOCTYPE svg PUBLIC "-//W3C//DTD SVG 20010904//EN"
 "http://www.w3.org/TR/2001/REC-SVG-20010904/DTD/svg10.dtd">
<svg version="1.0" xmlns="http://www.w3.org/2000/svg"
 width="499.000000pt" height="341.000000pt" viewBox="0 0 499.000000 341.000000"
 preserveAspectRatio="xMidYMid meet">

<g transform="translate(0.000000,341.000000) scale(0.100000,-0.100000)"
fill="#000000" stroke="none">
<path d="M0 1705 l0 -1705 2495 0 2495 0 0 1705 0 1705 -2495 0 -2495 0 0
-1705z m2870 1445 c351 -104 614 -382 685 -726 21 -101 21 -304 1 -400 -59
-278 -254 -528 -513 -658 -127 -63 -229 -88 -390 -93 -124 -5 -156 -3 -239 17
-411 95 -698 416 -745 833 -54 490 268 932 761 1042 99 22 342 14 440 -15z
m240 -2372 l0 -142 50 49 c50 49 55 65 19 65 -10 0 -19 5 -19 10 0 6 30 10 70
10 68 0 91 -12 49 -25 -24 -8 -89 -63 -89 -76 0 -18 101 -148 120 -154 43 -14
16 -25 -60 -25 -81 0 -92 4 -66 24 12 9 10 19 -17 59 -18 26 -36 46 -42 44
-18 -6 -18 -89 -1 -99 33 -19 13 -28 -59 -28 -71 0 -97 12 -56 25 23 7 31 49
31 176 0 136 -8 186 -31 192 -32 9 -21 26 19 30 92 9 82 25 82 -135z m370 127
c6 -8 9 -23 5 -35 -5 -17 -13 -20 -38 -18 -21 2 -33 9 -35 21 -8 39 42 63 68
32z m-2556 -165 c34 -87 63 -145 67 -139 4 7 31 74 61 151 l53 138 78 0 c42 0
77 -4 77 -9 0 -5 -10 -11 -22 -13 -30 -4 -36 -31 -37 -175 -1 -132 7 -168 38
-178 47 -14 16 -25 -74 -25 -91 0 -121 11 -72 26 12 4 25 12 29 18 11 16 10
292 -1 281 -4 -6 -36 -81 -71 -168 -83 -208 -80 -209 -177 18 l-72 170 -1
-147 c0 -120 3 -149 16 -162 8 -9 22 -16 30 -16 8 0 14 -4 14 -10 0 -6 -33
-10 -80 -10 -78 0 -106 13 -55 26 34 8 36 24 33 194 -3 139 -4 145 -25 155
-41 18 -24 25 55 25 l77 0 59 -150z m1176 132 c72 -36 78 -106 13 -145 l-37
-21 34 -7 c48 -10 80 -50 80 -100 0 -80 -69 -109 -260 -109 -110 0 -131 7 -85
28 l25 12 0 166 c0 157 -1 166 -20 171 -51 13 -10 23 98 23 91 0 125 -4 152
-18z m-650 -112 c0 -5 -3 -10 -7 -10 -31 -1 -32 -18 -9 -88 39 -113 38 -113
74 -31 37 83 40 109 12 116 -41 11 -18 23 45 23 67 0 79 -7 46 -27 -10 -6 -57
-90 -104 -186 -88 -181 -104 -201 -155 -195 -42 5 -36 40 9 53 44 12 69 32 69
54 0 9 -23 73 -51 143 -35 88 -57 129 -70 133 -42 14 -15 25 61 25 47 0 80 -4
80 -10z m1040 -9 c97 -51 94 -198 -4 -245 -99 -47 -210 8 -222 111 -14 112
120 191 226 134z m367 2 c46 -21 73 -67 73 -121 0 -55 -23 -94 -70 -121 -78
-44 -174 -17 -212 59 -63 125 76 247 209 183z m623 -77 c0 -117 7 -154 31
-161 42 -14 14 -25 -61 -25 -82 0 -95 6 -60 28 18 11 20 23 20 111 0 92 -2
100 -21 106 -37 12 -4 27 74 34 15 1 17 -10 17 -93z m200 74 c0 -11 3 -20 6
-20 3 0 17 9 31 20 40 32 107 27 144 -9 27 -28 29 -34 29 -115 0 -64 4 -88 16
-100 8 -9 20 -16 25 -16 5 0 9 -4 9 -10 0 -6 -33 -10 -80 -10 -82 0 -95 6 -60
28 17 11 20 23 20 95 0 92 -15 127 -55 127 -44 0 -65 -43 -65 -131 0 -68 3
-81 20 -91 35 -22 22 -28 -60 -28 -47 0 -80 4 -80 10 0 6 4 10 9 10 5 0 17 7
25 16 12 11 16 36 16 99 0 83 -12 115 -43 115 -19 0 6 18 33 23 52 9 60 7 60
-13z m510 10 c8 0 31 2 51 6 26 4 39 1 49 -11 21 -25 -2 -42 -35 -27 -36 16
-45 8 -38 -33 10 -60 -48 -115 -122 -115 -14 0 -25 -6 -25 -14 0 -8 23 -17 66
-24 77 -13 111 -32 120 -69 17 -67 -39 -113 -139 -113 -73 0 -124 21 -132 53
-10 36 10 67 43 67 36 0 60 -15 38 -23 -21 -8 -20 -41 1 -58 22 -19 100 -16
120 4 10 10 13 24 9 41 -7 27 -52 46 -111 46 -66 0 -100 61 -53 94 l22 16 -22
23 c-14 15 -22 36 -22 58 0 63 40 92 115 84 28 -2 57 -5 65 -5z m320 -32 c0
-21 -2 -38 -4 -38 -3 0 -18 13 -34 30 -31 30 -55 32 -66 4 -6 -17 21 -45 83
-86 38 -26 41 -31 41 -72 0 -35 -5 -48 -22 -60 -25 -18 -90 -21 -118 -6 -13 7
-21 7 -25 0 -14 -23 -25 -7 -25 40 0 53 14 66 29 27 13 -33 36 -49 68 -45 20
2 29 9 31 25 3 18 -8 30 -51 57 -60 39 -80 75 -65 116 14 40 37 51 100 48 l58
-3 0 -37z"/>
<path d="M2617 2910 c-3 -19 -10 -98 -14 -175 l-8 -140 -40 160 c-22 87 -41
150 -43 139 -2 -11 6 -80 18 -154 11 -73 18 -135 15 -138 -2 -2 -22 36 -45 84
-80 173 -104 223 -107 220 -2 -2 22 -72 52 -156 31 -85 54 -157 53 -162 -2 -5
-45 48 -97 117 -51 69 -95 125 -98 125 -6 0 -9 6 81 -143 43 -71 76 -130 74
-132 -2 -3 -56 43 -119 100 -62 57 -118 104 -123 105 -4 0 25 -37 65 -82 121
-133 151 -168 145 -168 -3 0 -68 38 -145 85 -78 46 -141 83 -141 80 0 -2 59
-47 130 -101 72 -53 129 -98 127 -101 -3 -2 -67 19 -142 47 -152 55 -196 62
-89 13 245 -112 248 -117 39 -83 -70 11 -130 18 -133 15 -7 -6 6 -10 153 -46
72 -17 134 -35 140 -40 5 -5 -30 -9 -90 -10 -55 -1 -138 -4 -185 -8 -84 -6
-83 -7 75 -14 88 -5 174 -10 190 -13 27 -4 43 6 145 95 63 56 119 101 123 101
5 0 59 -43 120 -96 l112 -96 125 6 c69 3 152 7 185 7 l60 2 -55 7 c-30 5 -91
9 -135 10 -44 1 -100 5 -125 9 l-45 7 40 12 c22 6 72 18 110 27 192 44 193 56
1 25 -74 -12 -140 -20 -147 -18 -6 2 54 34 132 71 79 37 139 67 132 67 -6 0
-76 -22 -154 -50 -78 -27 -145 -50 -148 -50 -3 0 50 41 116 90 67 50 125 95
129 102 4 6 3 9 -2 6 -191 -119 -257 -158 -261 -155 -2 2 47 59 108 126 61 67
109 124 107 126 -1 2 -57 -45 -123 -105 -66 -60 -122 -107 -124 -104 -2 2 31
60 73 130 42 69 75 128 73 131 -3 2 -46 -53 -98 -121 -51 -69 -94 -124 -96
-122 -2 1 22 72 52 156 31 84 54 155 51 157 -2 2 -16 -22 -32 -54 -15 -32 -47
-98 -70 -148 -25 -51 -43 -81 -44 -68 0 12 9 85 21 163 11 78 19 143 17 145
-2 2 -21 -68 -42 -156 -22 -87 -41 -157 -44 -154 -3 2 -8 78 -11 167 -4 101
-9 150 -14 128z"/>
<path d="M2458 2368 c-84 -72 -224 -193 -312 -267 -150 -129 -157 -136 -128
-139 51 -5 122 41 245 157 85 82 123 111 142 111 16 0 25 -6 25 -15 0 -31 30
-13 83 53 69 84 137 150 137 134 0 -7 -29 -54 -65 -103 -36 -50 -65 -100 -65
-110 0 -31 37 -22 72 18 58 66 92 93 114 93 13 0 78 -42 147 -94 68 -51 139
-98 157 -105 42 -14 83 -15 75 -1 -11 18 -457 400 -466 400 -5 0 -78 -59 -161
-132z"/>
<path d="M2200 2284 c-156 -40 -174 -46 -105 -39 151 17 228 33 248 54 28 28
22 27 -143 -15z"/>
<path d="M2907 2299 c16 -17 48 -26 140 -40 190 -30 185 -24 -26 31 -135 36
-142 36 -114 9z"/>
<path d="M2155 2174 c-32 -15 -40 -22 -23 -19 40 8 75 22 83 34 9 16 -4 13
-60 -15z"/>
<path d="M3059 2170 c13 -11 29 -20 36 -20 7 0 22 -3 32 -6 17 -5 17 -5 0 6
-9 6 -34 18 -55 26 l-37 15 24 -21z"/>
<path d="M2690 2111 c-14 -5 -45 -20 -68 -35 -24 -15 -69 -31 -100 -37 -31 -6
-100 -30 -152 -53 -52 -24 -135 -54 -184 -66 -113 -29 -326 -111 -326 -126 0
-11 72 -114 109 -156 l39 -43 25 20 c14 11 69 58 123 104 125 106 272 204 293
196 9 -4 18 -7 21 -8 8 -2 152 24 183 34 30 9 34 3 12 -21 -12 -14 -21 -39
-24 -72 -1 -5 -6 -8 -11 -8 -16 0 -148 -91 -154 -106 -3 -7 4 -20 14 -27 19
-13 19 -17 6 -61 -8 -26 -20 -54 -27 -63 -14 -16 -14 -16 46 -58 18 -13 15
-14 -33 -14 -36 -1 -69 -9 -102 -26 -61 -31 -74 -31 -141 -1 -30 14 -72 27
-94 31 l-40 6 25 -22 c35 -31 193 -104 270 -124 88 -23 275 -31 364 -15 185
33 364 128 491 260 l40 41 -24 20 c-14 12 -39 19 -63 19 -58 0 -74 13 -88 70
-13 53 -42 85 -109 120 -49 25 -88 67 -74 81 7 7 19 3 39 -14 39 -32 68 -47
95 -47 12 0 37 -10 56 -22 34 -20 35 -20 25 -1 -16 28 -33 41 -82 58 -24 8
-66 35 -95 59 -38 33 -68 49 -114 61 -35 9 -79 25 -99 36 -20 10 -39 19 -42
18 -3 0 -16 -4 -30 -8z m37 -282 c19 -12 32 -23 30 -26 -11 -10 -72 15 -75 30
-4 22 4 21 45 -4z"/>
<path d="M3173 1999 c5 -25 26 -52 76 -99 39 -36 79 -83 89 -105 l20 -39 21
34 c11 19 21 38 21 42 0 7 -194 178 -219 193 -11 7 -13 2 -8 -26z"/>
<path d="M1950 790 l0 -70 38 0 c55 0 82 23 82 70 0 51 -20 70 -76 70 l-44 0
0 -70z"/>
<path d="M1952 618 c3 -69 4 -74 32 -87 43 -20 101 -1 115 40 17 48 -7 95 -56
108 -21 6 -51 11 -66 11 l-28 0 3 -72z"/>
<path d="M2365 717 c-67 -103 21 -264 94 -171 29 37 29 131 0 168 -27 34 -72
35 -94 3z"/>
<path d="M2735 717 c-49 -75 -19 -197 49 -197 40 0 66 43 66 110 0 43 -5 64
-21 84 -27 34 -72 35 -94 3z"/>
<path d="M4096 737 c-35 -26 -20 -127 20 -127 34 0 46 83 17 119 -16 19 -20
20 -37 8z"/>
</g>
</svg>
